<?xml version="1.0" encoding="UTF-8" standalone="no"?>
<svg
   width="40"
   height="40"
   viewBox="0 0 610 610"
   fill="none"
   version="1.1"
   id="svg7"
   xmlns="http://www.w3.org/2000/svg"
   xmlns:svg="http://www.w3.org/2000/svg">
  <defs
     id="defs7" />
  <g
     id="g7"
     transform="translate(4.9781757,93.937203)">
    <path
       d="m 76.4221,274.19 c -6.5398,6.54 -17.0822,6.638 -23.7415,0.293 L 195.346,417.148 c 6.638,6.639 17.402,6.639 24.041,0 l 46.36,-46.36 c 6.639,-6.638 6.639,-17.402 0,-24.041 L 134.806,215.806 Z"
       fill="#ffde57"
       id="path1" />
    <path
       d="M 136.5,50.9999 C 121.913,62.6197 121.752,74.973 125.316,84.4934 L 52.6799,157.13 c 6.6593,-6.345 17.2022,-6.248 23.7422,0.292 l 58.3839,58.384 61.505,-61.505 c 9.246,2.871 20.79,1.88 31.689,-11.801 18.3,-22.972 22.999,-31.915 31.468,-48.0341 l 0.011,-0.0216 c 1.15,-2.1871 2.368,-4.5064 3.7,-7.0108 1.453,-2.7343 3.042,-5.6893 4.821,-8.9339 8.064,-14.7045 15.678,-30.3087 7.473,-40.8365 C 275.029,37.0936 274.539,36.539 274,36.0002 L 258.343,20.6387 242.999,4.99994 C 242.461,4.4616 241.907,3.97189 241.338,3.52839 230.81,-4.67836 215.205,2.93579 200.5,11 c -1.281,0.7025 -2.517,1.3752 -3.712,2.0217 -4.613,2.4952 -8.616,4.5988 -12.254,6.5102 C 168.415,28.0013 159.472,32.7 136.5,50.9999 Z"
       fill="#4584b6"
       id="path2" />
    <path
       d="m 1.04165,215.774 c 0.00899,-4.339 1.66871,-8.675 4.97915,-11.985 L 52.6799,157.13 c 6.6593,-6.345 17.2022,-6.248 23.7422,0.292 l 58.3839,58.384 -58.3839,58.384 c -6.5398,6.54 -17.0822,6.638 -23.7415,0.293 L 6.0208,227.823 C 2.69415,224.497 1.03444,220.134 1.04165,215.774 Z"
       fill="#ffffff"
       stroke="#ffffff"
       stroke-width="2"
       id="path3" />
    <ellipse
       cx="133.04652"
       cy="140.29665"
       rx="21.5"
       ry="9.5"
       transform="rotate(-30)"
       fill="#ffffff"
       id="ellipse3" />
    <ellipse
       cx="31.128103"
       cy="-240.6543"
       rx="21.499992"
       ry="9.4999971"
       transform="matrix(0.50000017,-0.8660253,-0.8660253,-0.50000017,0,0)"
       fill="#ffffff"
       id="ellipse4" />
    <path
       d="m 523.621,147.935 c 6.54,-6.539 17.082,-6.637 23.742,-0.293 L 404.698,4.97749 c -6.639,-6.63891 -17.403,-6.63891 -24.042,0 l -46.36,46.35961 c -6.638,6.639 -6.638,17.4028 0,24.0417 L 465.237,206.319 Z"
       fill="#ffde57"
       id="path4" />
    <path
       d="m 463.543,371.126 c 14.587,-11.62 14.749,-23.973 11.184,-33.494 l 72.636,-72.636 c -6.659,6.345 -17.202,6.248 -23.742,-0.292 l -58.384,-58.385 -61.505,61.505 c -9.246,-2.871 -20.79,-1.879 -31.689,11.802 -18.3,22.972 -22.998,31.915 -31.468,48.034 l -0.011,0.021 c -1.149,2.187 -2.368,4.507 -3.699,7.011 -1.454,2.734 -3.042,5.689 -4.822,8.934 -8.063,14.705 -15.677,30.309 -7.472,40.837 0.443,0.569 0.933,1.124 1.472,1.662 l 15.657,15.362 15.344,15.639 c 0.538,0.538 1.092,1.028 1.661,1.471 10.528,8.207 26.133,0.593 40.838,-7.471 1.281,-0.703 2.517,-1.376 3.712,-2.022 4.613,-2.495 8.617,-4.599 12.254,-6.51 16.119,-8.47 25.062,-13.168 48.034,-31.468 z"
       fill="#4584b6"
       id="path5" />
    <path
       d="m 599.002,206.351 c -0.009,4.339 -1.669,8.675 -4.979,11.986 l -46.66,46.659 c -6.659,6.345 -17.202,6.248 -23.742,-0.292 l -58.384,-58.385 58.384,-58.384 c 6.54,-6.539 17.082,-6.637 23.742,-0.293 l 46.66,46.66 c 3.326,3.327 4.986,7.689 4.979,12.049 z"
       fill="#ffffff"
       stroke="#ffffff"
       stroke-width="2"
       id="path6" />
    <ellipse
       cx="-175.5442"
       cy="-525.29651"
       rx="21.5"
       ry="9.5"
       transform="rotate(150)"
       fill="#ffffff"
       id="ellipse6" />
    <ellipse
       cx="96.678299"
       cy="490.06122"
       rx="21.499992"
       ry="9.4999971"
       transform="matrix(-0.50000017,0.8660253,0.8660253,0.50000017,0,0)"
       fill="#ffffff"
       id="ellipse7" />
  </g>
</svg>
